<?xml version="1.0" encoding="UTF-8" standalone="no"?>
<!-- Created with Inkscape (http://www.inkscape.org/) -->

<svg
   xmlns:dc="http://purl.org/dc/elements/1.1/"
   xmlns:cc="http://creativecommons.org/ns#"
   xmlns:rdf="http://www.w3.org/1999/02/22-rdf-syntax-ns#"
   xmlns:svg="http://www.w3.org/2000/svg"
   xmlns="http://www.w3.org/2000/svg"
   xmlns:xlink="http://www.w3.org/1999/xlink"
   xmlns:sodipodi="http://sodipodi.sourceforge.net/DTD/sodipodi-0.dtd"
   xmlns:inkscape="http://www.inkscape.org/namespaces/inkscape"
   version="1.1"
   id="svg2"
   width="48"
   height="43.250885"
   viewBox="0 0 48 43.250885"
   sodipodi:docname="logo.svg"
   inkscape:version="0.92.1 r15371"
   inkscape:export-filename="C:\Users\ASUS\Documents\GitHub\masterlife-frontend\src\gui\logo.png"
   inkscape:export-xdpi="207.59984"
   inkscape:export-ydpi="207.59984">
  <metadata
     id="metadata8">
    <rdf:RDF>
      <cc:Work
         rdf:about="">
        <dc:format>image/svg+xml</dc:format>
        <dc:type
           rdf:resource="http://purl.org/dc/dcmitype/StillImage" />
        <dc:title />
      </cc:Work>
    </rdf:RDF>
  </metadata>
  <defs
     id="defs6" />
  <sodipodi:namedview
     pagecolor="#ffffff"
     bordercolor="#666666"
     borderopacity="1"
     objecttolerance="10"
     gridtolerance="10"
     guidetolerance="10"
     inkscape:pageopacity="0"
     inkscape:pageshadow="2"
     inkscape:window-width="1366"
     inkscape:window-height="705"
     id="namedview4"
     showgrid="false"
     inkscape:measure-start="25.1198,263.419"
     inkscape:measure-end="0,0"
     inkscape:zoom="6.2600001"
     inkscape:cx="31.071091"
     inkscape:cy="29.91734"
     inkscape:window-x="-8"
     inkscape:window-y="-8"
     inkscape:window-maximized="1"
     inkscape:current-layer="svg2"
     showguides="false" />
  <g
     id="g4497"
     transform="matrix(0.15401981,0,0,0.15987244,0.72816375,-1.209117)">
    <path
       inkscape:connector-curvature="0"
       d="m 148.19959,39.313205 c -0.6168,0 -1.5168,1.8 -2,4 -0.8043,3.66196 -1.34828,4 -6.42188,4 h -5.54101 l 4.27734,3 c 4.25073,2.980758 4.3921,3.714638 1.94727,10.205078 -0.52564,1.39542 0.3432,1.25389 3.4082,-0.55664 3.864,-2.28252 4.32014,-2.295662 7.50781,-0.207032 4.59625,3.01159 4.82157,2.875324 3.4043,-2.066406 -1.09257,-3.80959 -0.81907,-4.62661 2.42773,-7.285156 l 3.65625,-2.994141 -4.89453,-0.04883 c -4.33836,-0.04251 -4.99269,-0.501058 -5.77148,-4.046875 -0.4832,-2.2 -1.3832,-4 -2,-4 z m 32.42187,9.792969 c -0.35212,0.0108 -0.87681,0.921246 -1.83789,2.873047 -1.58286,3.2146 -2.68521,3.916835 -5.61133,3.572265 -4.34459,-0.5116 -4.72369,1.110139 -0.82812,3.542969 2.19184,1.36882 2.64256,2.617307 2.03516,5.654297 -0.89517,4.47592 -0.56236,4.645418 3.67773,1.867187 2.77436,-1.81783 3.27453,-1.81783 4.7832,0 2.65081,3.194041 4.03004,2.384543 3.17969,-1.867187 -0.6074,-3.03699 -0.15864,-4.285477 2.0332,-5.654297 3.53477,-2.2075 3.66225,-4.315679 0.20704,-3.412109 -3.17364,0.82992 -6.3267,-1.438535 -7.00391,-5.03711 -0.19046,-1.012044 -0.3609,-1.547464 -0.63477,-1.539062 z m -63.08984,0.873047 c -0.38555,0 -1.29799,1.35 -2.02734,3 -0.98781,2.23471 -2.25851,2.903077 -4.98243,2.617187 -4.36223,-0.45784 -4.73089,1.070487 -0.84375,3.498047 2.19183,1.36882 2.64061,2.617307 2.03321,5.654297 -0.88853,4.44268 -0.0957,4.839376 3.38281,1.691406 2.26888,-2.05331 2.60807,-2.05331 4.87695,0 3.47849,3.14797 4.2694,2.751274 3.38086,-1.691406 -0.60739,-3.03699 -0.15862,-4.285477 2.03321,-5.654297 3.88713,-2.42756 3.51847,-3.955887 -0.84376,-3.498047 -2.72392,0.28589 -3.99461,-0.382477 -4.98242,-2.617187 -0.72935,-1.65 -1.6418,-3 -2.02734,-3 z m -24.214846,11.982422 -7.972657,5.591796 c -30.61805,21.47733 -48.97153,62.784091 -44.09375,99.240231 0.82888,6.19502 1.866781,11.84689 2.306641,12.55859 0.43985,0.71171 2.284289,1.29297 4.099609,1.29297 3.22556,0 3.276067,-0.15907 2.253907,-7 -1.78515,-11.94738 -1.063224,-34.27863 1.410156,-43.66602 3.04729,-11.56553 9.818606,-25.5072 17.259766,-35.535145 5.421239,-7.30585 18.485183,-19.53819 24.402343,-22.84961 1.65001,-0.92339 1.956773,-2.245394 1.257813,-5.427734 z m 110.554686,1.777343 c -0.37492,-0.01872 -0.68726,0.04353 -0.92968,0.19336 -2.9276,1.80935 -1.37997,6.722676 3.07226,9.753906 7.7104,5.2495 19.71603,17.948954 25.48438,26.958988 7.81581,12.20813 12.41058,23.74932 14.71484,36.96288 2.38784,13.69288 2.42589,20.59401 0.18359,33.37109 -1.77118,10.09269 -1.64366,10.37599 4.00196,8.86133 3.54196,-0.95028 4.64754,-7.06465 4.62304,-25.5625 -0.0296,-22.29729 -4.96427,-38.97211 -17.25586,-58.298819 -8.57921,-13.489538 -28.27071,-31.959414 -33.89453,-32.240235 z m -56.33984,8.84375 c -21.36266,0.05504 -39.80451,6.940355 -54.695315,20.421875 l -6.326172,5.726563 4.275391,6.064446 c 2.45043,3.47644 4.597463,8.47984 5.033203,11.72852 0.49069,3.65835 1.142814,5.04578 1.839844,3.91797 1.53083,-2.47695 7.669899,2.29455 11.576169,8.99609 2.38337,4.08886 2.95575,6.85583 2.66602,12.87695 -0.20298,4.218 -0.22622,7.66702 -0.0527,7.66602 0.17349,-0.001 1.22464,-2.25196 2.33593,-5.00196 1.13527,-2.80931 5.83129,-8.50511 10.71875,-13 6.58405,-6.05518 9.46279,-9.89308 11.84375,-15.79101 1.73356,-4.29423 3.46765,-6.98768 3.86133,-6 0.48682,1.22135 0.74666,1.04712 0.81836,-0.54297 0.0579,-1.28334 0.74097,-2.33203 1.51758,-2.33203 0.77662,0 1.04083,-0.60187 0.58594,-1.33789 -0.45488,-0.73603 -2.44037,-0.95316 -4.41211,-0.48242 -5.02841,1.20054 -6.11841,1.99888 -4.27735,3.13672 0.87578,0.54126 1.39008,2.41757 1.14258,4.16797 -0.41298,2.92089 -0.79583,2.68443 -4.66015,-2.87891 -4.01768,-5.78409 -4.14548,-6.35387 -2.75782,-12.417965 0.83607,-3.65362 2.48401,-6.906854 3.87696,-7.652344 1.3326,-0.71318 2.42382,-2.10508 2.42382,-3.09375 0,-0.98867 1.33301,-2.146045 2.96289,-2.572265 3.7842,-0.98959 14.86537,5.248893 13.88086,7.814453 -0.37744,0.98361 0.17992,2.504109 1.23633,3.380859 2.27275,1.88621 2.37253,1.299953 0.58399,-3.404297 -1.0116,-2.66069 -0.87212,-3.975541 0.57226,-5.419922 4.79398,-4.79397 9.22158,0.620366 10.79297,13.197266 0.85137,6.814165 0.72104,7.212545 -3.58594,10.994135 -4.41347,3.87507 -7.28961,9.70057 -17.59961,35.63672 -2.94231,7.40178 -7.47494,15.40116 -12.27343,21.66601 -9.07265,11.84515 -9.53752,11.93775 -29.29102,5.81836 -16.284149,-5.04461 -22.216343,-8.38071 -30.326173,-17.05078 l -6.28711,-6.7207 v 7.87695 c 0,8.24334 2.230264,21.23136 3.964844,23.0957 0.55668,0.59832 8.441758,1.60148 17.523438,2.22852 17.400351,1.2014 126.410371,0.57045 134.671881,-0.7793 4.27181,-0.69792 5.01794,-1.42593 6.49414,-6.33007 0.91736,-3.04759 1.97102,-10.63971 2.34179,-16.87305 l 0.67578,-11.33399 -7.63281,8.35352 c -4.19755,4.5943 -10.2841,9.90712 -13.52539,11.80664 -5.8956,3.45505 -23.15258,9.83984 -26.5957,9.83984 -1.00494,0 -6.91129,-4.53478 -13.125,-10.07812 -10.93348,-9.7539 -15.25678,-15.91954 -18.08789,-25.79102 -1.6951,-5.9105 0.76567,-5.12382 2.71875,0.86914 0.89621,2.75 3.28709,7.42982 5.31445,10.39844 4.79827,7.02598 20.29344,20.60156 23.51367,20.60156 2.59421,0 16.58468,-4.6153 20.75586,-6.84765 1.30268,-0.69717 5.37896,-3.9429 9.0586,-7.21094 3.67964,-3.26804 7.24726,-5.94141 7.92968,-5.94141 2.08816,0 8.00391,-9.74947 8.00391,-13.1914 0,-1.78199 -1.00827,-6.44297 -2.24219,-10.35742 -2.23074,-7.07669 -2.27432,-7.11719 -7.70312,-7.11719 -3.00291,0 -6.84634,-0.97061 -8.53907,-2.15625 -2.69951,-1.8908 -3.00381,-2.9968 -2.47656,-9 0.33063,-3.76436 1.0378,-8.13614 1.57031,-9.71484 0.81236,-2.4084 -0.45497,-4.042309 -7.86718,-10.156249 -17.03643,-14.05244 -32.89291,-19.759425 -54.74219,-19.703125 z m -51.699221,4.0625 c -0.77841,0 -6.945909,5.595151 -13.705079,12.431641 -9.978179,10.09233 -13.311456,14.542543 -17.722656,23.666013 -7.87512,16.28771 -9.924665,26.512 -9.197265,45.90234 0.33011,8.8 1.273183,17.65131 2.095703,19.66797 0.82251,2.01667 2.353803,3.66601 3.402344,3.66601 1.6405,0 1.625938,-1.06877 -0.107422,-7.66601 -1.4499,-5.51832 -1.850425,-11.96336 -1.427735,-23 0.65912,-17.20972 4.024924,-29.12252 11.933594,-42.23437 5.54053,-9.18568 17.041314,-22.023297 23.058594,-25.742187 4.286124,-2.64897 5.294844,-6.691407 1.669922,-6.691407 z m 103.943361,0.841797 c -0.64668,-0.0031 -1.07343,0.326564 -1.31836,0.964844 -0.39225,1.02221 2.32236,4.099896 6.48828,7.353516 19.22342,15.013687 32.4957,42.863187 32.5625,68.326167 0.021,7.99129 -1.51647,19.45656 -3.42187,25.51367 -0.76896,2.44448 0.41048,2.97193 2.94336,1.31445 4.04431,-2.64655 5.84901,-28.45134 3.05859,-43.73437 -3.2845,-17.98904 -13.65687,-36.89584 -27.4668,-50.066402 -6.97993,-6.656767 -10.90566,-9.662652 -12.8457,-9.671875 z m -54.24414,3.158203 c 0.73333,0 1.33398,0.9 1.33398,2 0,1.1 -0.60065,2 -1.33398,2 -0.73334,0 -1.33203,-0.9 -1.33203,-2 0,-1.1 0.59869,-2 1.33203,-2 z m 5.57422,1.333985 c 1.77264,0 2.4776,0.751099 2.17578,2.318359 -0.45479,2.36148 -3.86041,3.791932 -5.38867,2.263672 -1.55658,-1.55658 0.56471,-4.582031 3.21289,-4.582031 z m -9.73438,6.83789 c -0.725,-0.009 -1.49784,0.06925 -2.14648,0.238282 -1.2973,0.33806 -0.55938,0.636862 1.64062,0.664062 2.2,0.02717 3.26208,-0.250004 2.35938,-0.615234 -0.45136,-0.182615 -1.12852,-0.278156 -1.85352,-0.28711 z m 5.05078,1.753907 c -0.40543,0.02075 -0.50679,0.285431 -0.21484,0.757812 0.44803,0.72494 1.38025,1.316406 2.07031,1.316406 1.9179,0 1.49545,-0.955407 -0.81445,-1.841797 -0.44495,-0.170748 -0.79776,-0.244872 -1.04102,-0.232421 z m -3.83789,3.4375 c -0.94588,0.01611 0.75701,1.153143 3.78321,2.527343 5.51128,2.50269 8.08997,4.962759 6.67968,6.373049 -0.41388,0.41388 -2.81554,-0.22588 -5.33593,-1.42188 -2.52038,-1.196 -6.59104,-2.099609 -9.04688,-2.007809 -3.99982,0.1495 -3.84647,0.26665 1.46875,1.124999 3.26348,0.52702 6.49796,1.85413 7.1875,2.94727 1.27218,2.01681 7.54492,1.77956 7.54492,-0.28516 0,-0.58787 0.3954,-2.1684 0.87891,-3.511719 0.4835,-1.34331 0.41025,-2.016627 -0.16406,-1.498046 -0.57432,0.51858 -3.34685,-0.232729 -6.16016,-1.667969 -2.81332,-1.43525 -5.89006,-2.596178 -6.83594,-2.580078 z m 61.61524,26.636712 c 4.91327,0 12.5641,5.37806 13.11523,9.21875 0.75344,5.25049 -3.55787,14.37518 -8.19531,17.3457 l -4.25391,2.72461 5,0.22266 c 2.75,0.12236 5.74935,0.28217 6.66602,0.35547 0.91666,0.0733 2.5252,-1.81588 3.57422,-4.19922 2.26914,-5.15546 4.09375,-5.61525 4.09375,-1.03125 0,2.15284 -1.2778,4.10842 -3.66797,5.61719 -2.01667,1.27299 -6.70644,5.03603 -10.42188,8.36328 -3.71544,3.32724 -9.71414,7.10366 -13.33203,8.39062 -3.61789,1.28696 -7.81193,2.33799 -9.31836,2.33399 -7.21801,-0.0174 -24.3028,-15.59225 -30.48242,-27.78711 -5.53353,-10.9199 -4.15558,-17.40833 2.73633,-12.89258 l 3.39453,2.22656 -2.8457,-3.8496 c -1.66678,-2.25444 -2.49423,-4.76833 -1.9961,-6.06641 0.68653,-1.78908 2.04853,-0.93348 7.0586,4.43945 3.97744,4.26551 9.79898,8.44129 16.20312,11.62305 6.74306,3.35016 10.97254,6.43957 13,9.49609 3.41252,5.14463 3.97079,4.54057 1.04102,-1.125 -1.07947,-2.08746 -3.57029,-4.96766 -5.53711,-6.40039 l -3.57617,-2.60547 2.53711,-5.18164 c 2.94027,-6.00216 10.01146,-11.21875 15.20703,-11.21875 z m -44.8418,1.47266 c -0.30276,-0.10721 -0.19247,0.39828 0.25977,1.58594 0.5007,1.31496 1.24573,2.05505 1.65625,1.64453 0.41052,-0.41051 0.001,-1.48619 -0.91016,-2.39063 -0.49381,-0.49013 -0.8242,-0.77551 -1.00586,-0.83984 z m -88.927735,5.19531 c -0.96336,0 -2.309201,4.11001 -3.650391,11.15039 -1.20548,6.32797 -1.106473,6.6447 4.154297,13.25195 6.24127,7.83871 12.309316,12.27242 22.597656,16.51172 9.291173,3.82841 11.926303,4.0203 8.873053,0.64649 -2.914929,-3.22096 -2.786479,-3.9451 0.79492,-4.53711 3.00663,-0.49699 0.32008,-1.49176 -14.000004,-5.17774 -9.55217,-2.45872 -20.635682,-16.72494 -15.513672,-19.96875 3.36867,-2.13341 6.451616,-1.25913 11.509766,3.26367 2.75211,2.46084 6.373718,5.19192 8.048828,6.07032 2.54928,1.33681 2.269177,0.58053 -1.720703,-4.64649 -2.72844,-3.57446 -4.600856,-7.43269 -4.378906,-9.02148 0.32311,-2.31292 -0.546587,-2.93719 -5.216797,-3.7461 -3.08254,-0.53392 -6.793514,-1.60736 -8.246094,-2.38476 -1.45259,-0.7774 -2.915543,-1.41211 -3.251953,-1.41211 z m 77.306645,2.00586 c -0.34213,0.0811 -1.92653,2.70257 -4.85742,8.35547 -7.76769,14.98182 -18.27072,23.77652 -25.01172,20.94336 -2.99476,-1.25865 -8.33594,-1.63667 -8.33594,-0.58985 0,0.44221 2.14767,3.31357 4.77148,6.37891 2.62381,3.06533 5.34904,5.57226 6.05664,5.57226 0.70761,0 4.24523,-2.76795 7.86133,-6.15039 4.85004,-4.53665 8.36085,-9.81276 13.38086,-20.11718 4.48271,-9.20153 6.6348,-14.5111 6.13477,-14.39258 z m -7.67774,2.84375 c -0.2892,-0.23275 -2.3706,3.37931 -4.625,8.02539 -2.8837,5.94297 -3.39229,7.80713 -1.71484,6.28906 2.33921,-2.11696 7.37319,-13.48284 6.33984,-14.31445 z m -48.576171,4.90234 c -0.101171,0.005 -0.17515,0.0287 -0.21875,0.0723 -0.34879,0.3488 1.068901,1.55556 3.150391,2.68359 5.61133,3.04096 7.15929,2.57972 1.966797,-0.58594 -2.157785,-1.31551 -4.190237,-2.2022 -4.898438,-2.16992 z M 0.19958691,179.07882 v 7.31055 c 0,5.1545 1.18561439,10.09948 4.02148439,16.76367 2.21225,5.19872 4.936434,13.01766 6.0527337,17.375 1.81638,7.09043 1.815663,8.8396 0.002,16.66016 -1.1145897,4.80603 -3.8368204,12.73245 -6.0507804,17.61523 -3.98427999,8.78714 -5.7283638,23.17578 -2.8085938,23.17578 0.66978,0 11.3191352,-1.17183 23.6660152,-2.60546 12.34689,-1.43364 28.341188,-3.01948 35.542968,-3.52344 93.978506,-7.35989 103.374776,-6.23093 175.173826,0.0312 16.07755,1.16244 56.3073,5.6899 60.97461,6.86133 3.10252,0.77868 3.42578,0.48544 3.42578,-3.10743 0,-2.18131 -2.68285,-9.62674 -5.96094,-16.54687 -8.41459,-17.76335 -10.78177,-27.69236 -8.75781,-36.73633 1.70947,-7.63874 6.4473,-19.96335 11.5293,-29.99219 3.89631,-7.68898 4.214,-13.04687 0.77148,-13.04687 -1.32996,0 -8.97996,0.86399 -17,1.91992 -44.08894,5.80484 -112.2043,9.39595 -153.91602,8.11523 -42.803789,-1.31425 -96.165216,-5.4744 -121.6660061,-9.48437 z m 2.48242189,6.91211 c 0.46712,0.006 7.7502532,0.87025 16.1835932,1.92188 41.34909,5.15623 69.594432,6.62757 127.999998,6.66797 58.87081,0.0408 80.27258,-0.984 123.97266,-5.94141 12.08465,-1.37091 22.10965,-2.35715 22.27734,-2.18945 0.16769,0.16769 -3.34814,7.52646 -7.8125,16.35156 -12.24532,24.2064 -11.97851,30.68232 2.33789,56.56445 3.31984,6.00183 5.73661,11.21263 5.3711,11.57813 -0.3655,0.36551 -8.94783,-0.29117 -19.07227,-1.45899 -10.12444,-1.16782 -25.78951,-2.76824 -34.8125,-3.55664 -61.79736,-5.39972 -103.86197,-6.48692 -195.169921,1.32813 -16.36715,1.54292 -32.389186,3.17506 -35.6035157,3.6289 -3.2916099,0.46476 -5.6197807,0.30248 -5.3320307,-0.37304 0.281,-0.65966 4.0232057,-8.15203 8.3164054,-16.64844 4.77558,-9.45108 8.073261,-17.8168 8.494141,-21.55078 0.91567,-8.12381 -2.263704,-17.85542 -10.9960937,-33.66016 -3.8512,-6.97026 -6.6214165,-12.66711 -6.1542965,-12.66211 z M 249.25232,197.97921 c -167.525727,87.02327 -83.76286,43.51163 0,0 z"
       style="fill:#000000;stroke-width:1.33333337"
       id="path4487" />
    <path
       inkscape:connector-curvature="0"
       d="m 66.691774,194.75656 c -0.939222,0 -2.542079,0.72414 -3.591797,0.96544 -1.049719,1.14622 -4.972657,47.78005 -4.972657,52.48558 0,2.11146 -0.607558,7.48087 2.09961,7.48087 l 0.441406,-0.18114 c 0.110497,0.24131 2.431351,1.26613 2.652344,1.26613 3.370148,0 5.800781,-26.72519 5.800781,-31.00844 l 0.222656,-0.30068 c 1.491705,0 6.850673,-0.12056 7.900391,-0.60319 0,-0.66359 -0.664043,-3.9829 -1.050781,-4.40519 h -4.861328 c -0.607732,0 -1.159847,0.18239 -1.767579,0.24272 0,-6.27405 -1.271484,-12.30785 -1.271484,-18.46124 v -0.18114 c 4.198873,0 8.121169,0.18178 12.154297,-0.48181 0,-0.72393 -0.662921,-3.86044 -1.160156,-4.40339 -1.602202,-0.30163 -3.259127,-0.24272 -4.861328,-0.24272 -2.265182,0 -4.420656,0.72454 -6.464844,0.72454 h -0.220703 l -1.048828,-2.53408 z m -43.712891,1.26794 -0.386719,0.36227 c -0.66298,6.03273 -1.271484,12.30534 -1.271484,18.33807 v 19.00284 c 0,6.15339 1.492187,12.54861 1.492187,18.52102 0,0.18098 0.166036,0.84409 -0.220703,0.84409 -0.828725,0 -1.105739,2.23219 -1.271484,2.95611 -0.05525,0.4223 0.608504,0.30265 1.271484,0.48364 2.486175,0.42228 5.193513,0.72454 7.679688,0.72454 h 9.115234 c 0.883973,0 4.365756,-0.30327 5.083984,-1.20818 l 0.07617,-0.384 0.81836,0.0236 c 1.933691,0 6.685739,-0.48274 8.398437,-1.56863 l 0.330078,-2.95612 c 0.165745,-0.78426 -1.878596,-0.66476 -2.486328,-0.66476 0,-16.5297 3.316407,-32.99851 3.316407,-49.46788 0.276241,0.18098 3.203105,-0.72429 3.589843,-1.14658 l 0.830078,-3.13725 c -0.386738,-0.42229 -1.160968,-0.42205 -1.658203,-0.42205 -1.381208,0 -11.380549,0.96502 -11.988281,2.59385 0.276242,0.96524 0.772006,2.776 1.490234,3.25861 l 3.923829,-0.48362 c -3.3149,8.68714 -4.419922,28.65579 -4.419922,38.30817 0,3.43865 0.607422,6.93728 0.607422,10.31561 v 0.66477 c -1.104967,0.66359 -2.486831,0.36162 -3.591797,1.02522 l -0.08203,0.60137 c -1.919596,-0.41253 -3.924952,-0.42024 -5.894531,-0.42024 -3.3149,0 -6.6851,0.48222 -10,0.24092 -0.441987,-3.61965 1.435547,-16.77026 1.435547,-22.01874 0,-4.82619 -1.160039,-31.85285 -3.480469,-34.3866 z m 167.027347,0.0598 c -7.73477,0 -10.71875,7.29929 -10.71875,14.65923 0,14.41824 19.78009,26.42355 20.66406,28.83664 -7.07178,2.59407 -13.81215,7.36028 -20.77344,10.43697 0.16575,-0.6636 0.44083,-1.44772 0.88282,-1.99066 -0.66298,-1.02557 -1.49047,-1.68935 -2.42969,-2.35294 -0.22722,0 -0.53131,0.39688 -0.85742,0.99986 -0.6486,-10.95394 -4.38263,-48.35584 -7.34961,-49.56387 -0.44199,-0.18099 -1.82308,-0.18115 -2.32032,-0.18115 -3.97787,0 -21.82226,50.01118 -21.82226,59.90486 0,1.93048 0.49683,3.74044 2.54102,3.74044 0.66297,0 1.38194,-0.24106 2.04492,-0.42205 6.18781,-10.49696 8.34237,-23.40632 13.48047,-34.26525 2.26518,-0.2413 4.63994,-0.72454 7.01562,-0.72454 v 0.36228 c 0.38674,4.34357 1.27118,8.5659 1.87891,12.90946 0.16574,1.56851 0.93829,10.01545 1.82226,11.34266 h 0.71875 c 0.22144,0 0.48389,-0.0577 0.75196,-0.13042 -0.47422,1.37802 -0.83204,2.71755 -0.83204,3.26767 0,3.19735 2.48482,3.13544 4.75,3.13544 6.40881,0 23.3711,-9.53133 23.3711,-17.43421 0,-8.92845 -18.17774,-15.2015 -18.17774,-28.17187 0,-2.11147 1.71388,-9.23063 4.31055,-9.23063 5.41434,0 8.06598,6.03334 10.99414,10.01494 0.71823,0 1.49105,-0.54386 1.98828,-1.08681 -1.04972,-6.03273 -5.58003,-14.05605 -11.93359,-14.05605 z m 28.37305,0.12136 c -3.20441,0 -13.81154,-0.0604 -16.40821,1.38749 -0.38674,0.90491 -0.71875,1.86952 -0.71875,2.83476 2.92816,0.72393 6.46469,0.96489 9.5586,1.02522 -1.49171,9.16976 -1.38282,18.64111 -1.38282,27.87119 0,7.96322 0.11181,16.10763 1.60352,23.88985 0.16574,0.78426 0.38583,2.41271 1.43555,2.41271 4.86185,0 4.41992,-11.03933 4.41992,-15.08127 v -18.76192 c 0,-6.51536 -0.82834,-13.8156 -2.1543,-20.08964 4.69611,0 9.06031,-0.0594 13.70117,-1.08501 l 0.71875,-3.13725 c 0.0553,-0.42229 -0.11047,-0.36242 -0.38672,-0.54341 -2.04418,-0.78425 -8.06628,-0.72272 -10.38671,-0.72272 z m -98.35352,0.18109 c -0.60773,0 -0.71846,0.54135 -0.93945,0.96363 -3.09391,6.51536 -3.86719,34.3267 -3.86719,42.04861 0,1.87015 0.16423,14.65923 2.26367,14.65923 0.82873,0 1.49159,-0.84409 2.32031,-0.84409 l 0.44336,0.18113 0.7168,-0.18113 c 1.98894,-4.88652 2.54297,-24.01026 2.54297,-30.043 0.27624,0.78426 3.48043,8.80858 4.25391,8.80858 0.44198,0 1.15928,-0.48363 1.82226,-0.48363 4.19887,-6.75666 7.51373,-14.05611 11.93359,-20.57146 -1.93369,11.10023 -3.14843,22.44188 -3.14843,33.78343 0,3.37833 0.10964,6.81718 0.27539,10.25584 0.66298,1.14622 1.87885,1.32771 3.03906,1.32771 l 0.99414,-0.0616 c 4.80661,-4.70552 5.35994,-41.50386 5.30469,-49.94968 0,-2.4131 -0.27704,-4.88719 -0.88477,-7.23996 -0.82872,-0.18098 -2.09818,-0.42204 -2.8164,-0.42204 h -0.11133 c -7.29278,7.96321 -9.72405,18.51944 -15.35938,27.38756 -0.88397,-3.49899 -6.13223,-27.68947 -6.57422,-29.13732 -0.71822,-0.181 -1.49075,-0.48183 -2.20898,-0.48183 z m 151.13867,0.36046 c -0.88397,0 -2.09868,4.6e-4 -3.92187,0.5434 -1.54696,0.30164 -1.87885,0.60363 -3.03907,1.14659 -1.93369,0.90491 -2.7078,1.38824 -3.97851,2.29316 -0.88397,0.96523 -3.37079,3.19653 -3.97852,4.04112 l -0.38672,0.36226 -0.2207,0.18113 -0.16601,-0.24272 c -0.0553,-0.2413 -0.10938,-0.42219 -0.10938,-0.60318 -0.60773,-1.44785 -0.93914,-2.5938 -1.54687,-3.98133 l -0.33204,-1.44727 -0.60742,0.30069 c -0.27624,0 -0.8281,0.002 -1.21484,0.24272 h -0.88477 v 0.60318 c 0,0.78425 -0.60742,5.42982 -0.60742,6.87768 0,1.74949 -0.33203,7.90203 -0.33203,11.15971 v 2.53407 l -0.60742,-0.3025 c -0.60773,-0.2413 -0.82811,-0.54244 -1.21485,-0.84408 l -0.27734,-0.24092 -0.60742,0.24092 -1.43555,0.5434 c -0.27624,0.18098 -0.49775,0.24036 -0.71875,0.30068 0,0.18098 -5.6e-4,0.30194 0.0547,0.36227 0.0553,0.30164 0.1116,0.48308 0.27734,0.54341 0.27624,1.38752 1.76719,2.53443 3.92188,3.68066 l 0.60742,0.60317 v 1.44727 c 0.27624,3.43866 0.33118,7.66177 0.60742,10.25584 0,1.7495 0.33203,4.28371 0.33203,6.2745 0.27624,4.58488 0.60743,7.17874 0.60743,8.32496 0.27624,0.90491 0.27734,1.68902 0.27734,1.99066 0,0.90492 -0.0567,1.14659 0.33008,1.14659 0.27624,0 0.60906,-8.6e-4 1.21679,-0.30249 0,0 0.0541,-0.12097 0.10938,-0.36228 l 0.16601,-0.18113 v 0.54341 c -0.16574,0.48261 -0.22097,0.90471 -0.38671,1.20635 l -0.22071,0.54341 c 0,0.30163 1.54657,-0.30155 2.1543,-0.60319 0.71823,-0.30163 1.21538,-0.8454 1.54687,-1.68998 0.60774,-1.44785 0.83006,-3.37833 1.2168,-5.7311 0.27624,-1.99081 0.60742,-6.03306 0.60742,-8.26518 0.27624,-1.74949 0.27539,-2.04958 0.27539,-1.74794 l 0.22071,0.54159 c 0.16574,0.30164 0.22097,0.78406 0.38672,1.20635 1.4917,3.67997 3.92287,8.62823 6.13281,11.70493 2.65192,4.6452 3.86819,6.27332 6.07812,9.16904 2.81767,3.67996 3.5356,4.8271 5.80078,6.8179 3.03866,2.59408 4.86094,4.04157 7.01563,4.58452 0.27624,0.30163 0.60821,0.30069 1.49219,0.30069 0.93922,0 1.54656,-0.30115 2.15429,-0.84409 0.27625,-0.30164 0.88477,-1.14563 0.88477,-1.44727 l 0.2207,-0.24273 0.38672,-0.60317 c 0.93922,-1.14622 1.49217,-2.29258 1.87891,-3.74043 v -2.53226 h -2.1543 c -0.38674,0 -0.33313,-0.0608 -0.60937,0.84409 -0.38674,1.38752 -0.33118,1.99113 -0.60743,2.53407 -0.60773,0.90491 -0.9386,1.14658 -1.21484,1.14658 h -0.60742 l -0.33203,-0.8459 c -4.58561,-5.7311 -12.48625,-17.1333 -14.03321,-19.72738 -0.60773,-0.84458 -4.86181,-7.72068 -6.35351,-10.01312 -0.60773,-0.90491 -1.82304,-2.83502 -3.09375,-4.58452 -0.93922,-1.26687 -1.82335,-2.65509 -2.48633,-3.68065 l -1.16016,-1.74976 c 0.1105,0.0604 0.22098,0.0604 0.38672,0 0.221,0 0.49664,-0.0599 0.82813,-0.24091 6.13256,0 12.15578,-4.04253 15.85742,-10.01494 1.16021,-2.23211 1.60181,-3.13571 2.1543,-4.8852 1.21546,-3.43866 1.49108,-4.88688 1.21484,-6.87769 -0.38674,-2.35276 -0.88359,-3.9816 -2.1543,-5.73109 -1.27071,-1.68917 -3.03782,-2.83657 -5.46875,-2.83657 z m -173.423829,0.12136 c -1.10497,0 -3.922569,0.1204 -6.740234,0.42204 -1.381208,0.12066 -2.982885,0.36257 -4.861328,0.72454 -1.823195,0.30164 -3.094271,0.36212 -3.8125,0.18113 -0.66298,-0.18098 -1.326693,4.28241 -2.044922,13.33151 -0.718228,9.16977 -1.103786,15.86689 -1.269531,20.27078 -0.165745,4.4039 -0.220703,8.50512 -0.220703,12.36607 0,2.41309 0.220025,10.67825 2.595703,11.82447 h 3.591797 c 0.718228,-0.78425 10.994372,-1.02528 11.933598,-1.80953 l 0.93945,-2.65363 c 0,-0.0604 0.11055,-0.18113 -1.16016,-0.18113 -3.53589,0 -6.907464,0.60253 -10.443357,1.26613 -0.165745,-0.4223 -0.164062,-0.96465 -0.164062,-1.44727 0,-7.78223 1.103496,-15.92649 1.490234,-23.70871 l 0.386719,-0.36227 c 1.98894,0.0603 3.977857,-0.12112 5.966797,-0.5434 0.276241,-0.30164 1.105468,-1.38725 1.105468,-1.80954 v -0.90568 l -3.701171,-0.0597 c -1.160215,0 -2.431582,-0.18139 -3.591797,0.24091 0.828725,-7.96321 1.878906,-15.32291 1.878906,-23.34645 2.817665,0 5.580773,6.5e-4 8.398443,-0.66296 0.44198,-0.30163 0.9375,-2.4742 0.9375,-3.07748 z m 148.695319,0 c -1.10497,0 -3.92257,0.1204 -6.74024,0.42204 -1.38121,0.12066 -2.98288,0.36257 -4.86133,0.72454 -1.82319,0.30164 -3.09427,0.36212 -3.8125,0.18113 -0.66298,-0.18098 -1.32474,4.28241 -2.04297,13.33151 -0.71822,9.16977 -1.10573,15.86689 -1.27148,20.27078 -0.16574,4.4039 -0.2207,8.50512 -0.2207,12.36607 0,2.41309 0.22002,10.67825 2.5957,11.82447 h 3.5918 c 0.71823,-0.78425 10.99437,-1.02528 11.93359,-1.80953 l 0.93945,-2.65363 c 0,-0.0604 0.11056,-0.18113 -1.16015,-0.18113 -3.53589,0 -6.90552,0.60253 -10.44141,1.26613 -0.16574,-0.4223 -0.16601,-0.96465 -0.16601,-1.44727 0,-7.78223 1.10349,-15.92649 1.49023,-23.70871 l 0.38672,-0.36227 c 1.98894,0.0603 3.97981,-0.12112 5.96875,-0.5434 0.27624,-0.30164 1.10351,-1.38725 1.10351,-1.80954 v -0.90568 l -3.70117,-0.0597 c -1.16021,0 -2.43158,-0.18139 -3.59179,0.24091 0.82872,-7.96321 1.8789,-15.32291 1.8789,-23.34645 2.81767,0 5.58078,6.5e-4 8.39844,-0.66296 0.44199,-0.30163 0.93945,-2.4742 0.93945,-3.07748 z m 25.58203,4.34179 c 0.404,-0.0283 0.52815,0.19763 1.02539,0.42386 0.60773,0.24131 1.21484,0.84454 1.21484,1.3875 0.60773,1.14621 0.27624,3.4382 0,5.18769 -0.88397,2.23211 -4.36486,7.78282 -6.13281,10.01494 -0.60773,0.9049 -2.0993,1.99112 -2.70703,2.53407 -1.27071,0.6636 -2.48681,1.14563 -3.97852,1.44726 -0.38674,0 -1.21453,0.3025 -1.82226,0.3025 h -1.54688 l -0.27539,-2.05226 c 0,-2.59408 -0.55271,-5.12769 -0.93945,-7.72177 0,-0.54294 -0.11077,-1.08474 -0.16602,-1.50704 l -0.11133,-0.72454 c 0,-0.30163 4.9e-4,-0.3019 1.49219,-1.74976 2.43093,-2.59408 5.41499,-4.58534 9.17188,-6.2745 1.82319,-0.90491 3.31468,-1.14478 4.2539,-1.14478 0.221,-0.0754 0.38682,-0.11373 0.52149,-0.12317 z m -104.25,7.42291 v 0.17932 c 0.27624,0.18098 0.49609,2.77654 0.49609,3.19884 0.44199,3.13702 1.38086,6.51383 1.38086,9.65085 0.1105,0.18098 0.16602,0.36243 0.16602,0.5434 0,0.0603 -0.0555,0.0598 -0.16602,0.0598 -0.88397,0 -1.87774,0.1208 -2.76172,0.18113 -0.71823,0.0603 -1.38026,0.24272 -2.20898,0.24272 -0.16575,0 -0.27622,-9.2e-4 -0.38672,-0.0616 0.44199,-1.62883 3.48047,-13.51184 3.48047,-13.99446 z"
       style="font-style:normal;font-variant:normal;font-weight:normal;font-stretch:normal;font-size:59.94886398px;line-height:1.25;font-family:'Observant DEMO';-inkscape-font-specification:'Observant DEMO';letter-spacing:0px;word-spacing:0px;fill:#000000;fill-opacity:1;stroke:none;stroke-width:0.90206271"
       id="text4491" />
    <path
       sodipodi:nodetypes="csc"
       inkscape:connector-curvature="0"
       id="path4517"
       d="M 40.916122,146.09302 C 44.208397,91.097739 92.256294,38.634394 148.75396,38.618217 205.25162,38.602037 250.60973,91.038642 253.93513,146.03203"
       style="opacity:0.98000004;vector-effect:none;fill:none;fill-opacity:1;stroke:none;stroke-width:0.60000002;stroke-linecap:butt;stroke-linejoin:round;stroke-miterlimit:4;stroke-dasharray:none;stroke-dashoffset:0;stroke-opacity:1" />
    <text
       transform="translate(1.1563541,3.7214088)"
       y="0"
       x="169.86958"
       id="text4524"
       style="font-style:normal;font-variant:normal;font-weight:normal;font-stretch:normal;font-size:64px;line-height:1.25;font-family:'Observant DEMO';-inkscape-font-specification:'Observant DEMO';text-align:center;letter-spacing:0px;word-spacing:0px;text-anchor:middle;fill:#000000;fill-opacity:1;stroke:none;stroke-opacity:1"
       xml:space="preserve"><textPath
         id="textPath4526"
         xlink:href="#path4517"><tspan
   id="tspan4522"
   style="font-size:48px;text-align:center;text-anchor:middle;stroke:none;stroke-opacity:1">                             sfida la pigrizia</tspan></textPath></text>
  </g>
  <flowRoot
     xml:space="preserve"
     id="flowRoot4539"
     style="font-style:normal;font-variant:normal;font-weight:normal;font-stretch:normal;font-size:64px;line-height:1.25;font-family:'Observant DEMO';-inkscape-font-specification:'Observant DEMO';letter-spacing:0px;word-spacing:0px;fill:#000000;fill-opacity:1;stroke:none"
     transform="translate(0,-256.74912)"><flowRegion
       id="flowRegion4541"><rect
         id="rect4543"
         width="376.11823"
         height="331.98883"
         x="-45.487221"
         y="-59.82428" /></flowRegion><flowPara
       id="flowPara4545" /></flowRoot></svg>
